<svg width="1195" height="669" viewBox="0 0 1195 669" fill="none" xmlns="http://www.w3.org/2000/svg">
<circle cx="256" cy="335" r="200" stroke="#5DB3F3" stroke-width="10"/>
<circle cx="256" cy="335" r="200" stroke="url(#paint0_linear)" stroke-width="10"/>
<line x1="56" y1="337" x2="456" y2="337" stroke="#5DB3F3" stroke-width="10"/>
<line x1="56" y1="337" x2="456" y2="337" stroke="url(#paint1_linear)" stroke-width="10"/>
<path d="M56 335C122.667 181.667 243 168 265 335C285.024 487 389.333 488.333 456 335" stroke="#5DB3F3" stroke-width="10"/>
<path d="M56 335C122.667 181.667 243 168 265 335C285.024 487 389.333 488.333 456 335" stroke="url(#paint2_linear)" stroke-width="10"/>
<path d="M450 337.5C407 413 351.535 400 340 337.5C284.481 36.6883 50.3175 202.9 59 337.5" stroke="#5DB3F3" stroke-width="10"/>
<path d="M450 337.5C407 413 351.535 400 340 337.5C284.481 36.6883 50.3175 202.9 59 337.5" stroke="url(#paint3_linear)" stroke-width="10"/>
<path d="M60 334C147 208 161 294 209 409C263.678 540 407 525 455 334" stroke="#5DB3F3" stroke-width="10"/>
<path d="M60 334C147 208 161 294 209 409C263.678 540 407 525 455 334" stroke="url(#paint4_linear)" stroke-width="10"/>
<path d="M56 335C75 109 349 47 456 335" stroke="#5DB3F3" stroke-width="10"/>
<path d="M56 335C75 109 349 47 456 335" stroke="url(#paint5_linear)" stroke-width="10"/>
<path d="M56 335C185 608 443 555 456 335" stroke="#5DB3F3" stroke-width="10"/>
<path d="M56 335C185 608 443 555 456 335" stroke="url(#paint6_linear)" stroke-width="10"/>
<g filter="url(#filter0_d)">
<path d="M571.536 431.456C556.752 431.456 543.888 428.768 532.944 423.392C522 418.016 513.552 410.528 507.6 400.928C501.648 391.328 498.672 380.192 498.672 367.52H524.016C524.016 375.392 525.84 382.688 529.488 389.408C533.136 395.936 538.416 401.216 545.328 405.248C552.432 409.088 561.168 411.008 571.536 411.008C585.168 411.008 595.728 407.744 603.216 401.216C610.704 394.688 614.448 386.528 614.448 376.736C614.448 368.672 612.72 362.24 609.264 357.44C605.808 352.448 601.104 348.416 595.152 345.344C589.392 342.272 582.672 339.584 574.992 337.28C567.504 334.976 559.632 332.384 551.376 329.504C535.824 324.128 524.304 317.504 516.816 309.632C509.328 301.568 505.584 291.104 505.584 278.24C505.392 267.488 507.888 257.984 513.072 249.728C518.256 241.28 525.552 234.752 534.96 230.144C544.56 225.344 555.888 222.944 568.944 222.944C581.808 222.944 592.944 225.344 602.352 230.144C611.952 234.944 619.344 241.568 624.528 250.016C629.904 258.464 632.688 268.064 632.88 278.816H607.536C607.536 273.248 606.096 267.776 603.216 262.4C600.336 256.832 595.92 252.32 589.968 248.864C584.208 245.408 576.912 243.68 568.08 243.68C557.136 243.488 548.112 246.272 541.008 252.032C534.096 257.792 530.64 265.76 530.64 275.936C530.64 284.576 533.04 291.2 537.84 295.808C542.832 300.416 549.744 304.256 558.576 307.328C567.408 310.208 577.584 313.568 589.104 317.408C598.704 320.864 607.344 324.896 615.024 329.504C622.704 334.112 628.656 340.064 632.88 347.36C637.296 354.656 639.504 363.968 639.504 375.296C639.504 384.896 637.008 394.016 632.016 402.656C627.024 411.104 619.44 418.016 609.264 423.392C599.28 428.768 586.704 431.456 571.536 431.456ZM662.58 253.472C657.78 253.472 653.748 251.936 650.484 248.864C647.412 245.6 645.876 241.568 645.876 236.768C645.876 232.16 647.412 228.32 650.484 225.248C653.748 222.176 657.78 220.64 662.58 220.64C667.188 220.64 671.124 222.176 674.388 225.248C677.652 228.32 679.284 232.16 679.284 236.768C679.284 241.568 677.652 245.6 674.388 248.864C671.124 251.936 667.188 253.472 662.58 253.472ZM650.484 428V285.152H674.676V428H650.484ZM757.118 431.456C742.91 431.456 730.43 428.192 719.678 421.664C709.118 415.136 700.862 406.208 694.91 394.88C689.15 383.552 686.27 370.688 686.27 356.288C686.27 341.888 689.246 329.12 695.198 317.984C701.15 306.656 709.406 297.824 719.966 291.488C730.526 284.96 743.006 281.696 757.406 281.696C769.118 281.696 779.486 284.096 788.51 288.896C797.534 293.696 804.542 300.416 809.534 309.056V220.64H833.726V428H811.838L809.534 404.384C804.926 411.296 798.302 417.536 789.662 423.104C781.022 428.672 770.174 431.456 757.118 431.456ZM759.71 410.432C769.31 410.432 777.758 408.224 785.054 403.808C792.542 399.2 798.302 392.864 802.334 384.8C806.558 376.736 808.67 367.328 808.67 356.576C808.67 345.824 806.558 336.416 802.334 328.352C798.302 320.288 792.542 314.048 785.054 309.632C777.758 305.024 769.31 302.72 759.71 302.72C750.302 302.72 741.854 305.024 734.366 309.632C727.07 314.048 721.31 320.288 717.086 328.352C713.054 336.416 711.038 345.824 711.038 356.576C711.038 367.328 713.054 376.736 717.086 384.8C721.31 392.864 727.07 399.2 734.366 403.808C741.854 408.224 750.302 410.432 759.71 410.432ZM900.81 431.456C883.914 431.456 870.474 426.368 860.49 416.192C850.506 405.824 845.514 389.984 845.514 368.672V285.152H869.706V366.08C869.706 395.84 881.898 410.72 906.282 410.72C918.762 410.72 929.034 406.304 937.098 397.472C945.354 388.448 949.482 375.68 949.482 359.168V285.152H973.674V428H951.786L950.058 402.368C945.642 411.392 939.018 418.496 930.186 423.68C921.546 428.864 911.754 431.456 900.81 431.456ZM1043.73 431.456C1026.65 431.456 1012.44 427.136 1001.11 418.496C989.783 409.856 983.159 398.144 981.239 383.36H1006.01C1007.54 390.848 1011.48 397.376 1017.81 402.944C1024.34 408.32 1033.08 411.008 1044.02 411.008C1054.2 411.008 1061.69 408.896 1066.49 404.672C1071.29 400.256 1073.69 395.072 1073.69 389.12C1073.69 380.48 1070.52 374.72 1064.18 371.84C1058.04 368.96 1049.3 366.368 1037.97 364.064C1030.29 362.528 1022.61 360.32 1014.93 357.44C1007.25 354.56 1000.82 350.528 995.639 345.344C990.455 339.968 987.863 332.96 987.863 324.32C987.863 311.84 992.471 301.664 1001.69 293.792C1011.09 285.728 1023.77 281.696 1039.7 281.696C1054.87 281.696 1067.25 285.536 1076.85 293.216C1086.65 300.704 1092.31 311.456 1093.85 325.472H1069.94C1068.98 318.176 1065.81 312.512 1060.44 308.48C1055.25 304.256 1048.25 302.144 1039.41 302.144C1030.77 302.144 1024.05 303.968 1019.25 307.616C1014.65 311.264 1012.34 316.064 1012.34 322.016C1012.34 327.776 1015.32 332.288 1021.27 335.552C1027.41 338.816 1035.67 341.6 1046.04 343.904C1054.87 345.824 1063.22 348.224 1071.09 351.104C1079.16 353.792 1085.69 357.92 1090.68 363.488C1095.86 368.864 1098.45 376.736 1098.45 387.104C1098.65 399.968 1093.75 410.624 1083.77 419.072C1073.97 427.328 1060.63 431.456 1043.73 431.456Z" fill="#5DB3F3"/>
<path d="M571.536 431.456C556.752 431.456 543.888 428.768 532.944 423.392C522 418.016 513.552 410.528 507.6 400.928C501.648 391.328 498.672 380.192 498.672 367.52H524.016C524.016 375.392 525.84 382.688 529.488 389.408C533.136 395.936 538.416 401.216 545.328 405.248C552.432 409.088 561.168 411.008 571.536 411.008C585.168 411.008 595.728 407.744 603.216 401.216C610.704 394.688 614.448 386.528 614.448 376.736C614.448 368.672 612.72 362.24 609.264 357.44C605.808 352.448 601.104 348.416 595.152 345.344C589.392 342.272 582.672 339.584 574.992 337.28C567.504 334.976 559.632 332.384 551.376 329.504C535.824 324.128 524.304 317.504 516.816 309.632C509.328 301.568 505.584 291.104 505.584 278.24C505.392 267.488 507.888 257.984 513.072 249.728C518.256 241.28 525.552 234.752 534.96 230.144C544.56 225.344 555.888 222.944 568.944 222.944C581.808 222.944 592.944 225.344 602.352 230.144C611.952 234.944 619.344 241.568 624.528 250.016C629.904 258.464 632.688 268.064 632.88 278.816H607.536C607.536 273.248 606.096 267.776 603.216 262.4C600.336 256.832 595.92 252.32 589.968 248.864C584.208 245.408 576.912 243.68 568.08 243.68C557.136 243.488 548.112 246.272 541.008 252.032C534.096 257.792 530.64 265.76 530.64 275.936C530.64 284.576 533.04 291.2 537.84 295.808C542.832 300.416 549.744 304.256 558.576 307.328C567.408 310.208 577.584 313.568 589.104 317.408C598.704 320.864 607.344 324.896 615.024 329.504C622.704 334.112 628.656 340.064 632.88 347.36C637.296 354.656 639.504 363.968 639.504 375.296C639.504 384.896 637.008 394.016 632.016 402.656C627.024 411.104 619.44 418.016 609.264 423.392C599.28 428.768 586.704 431.456 571.536 431.456ZM662.58 253.472C657.78 253.472 653.748 251.936 650.484 248.864C647.412 245.6 645.876 241.568 645.876 236.768C645.876 232.16 647.412 228.32 650.484 225.248C653.748 222.176 657.78 220.64 662.58 220.64C667.188 220.64 671.124 222.176 674.388 225.248C677.652 228.32 679.284 232.16 679.284 236.768C679.284 241.568 677.652 245.6 674.388 248.864C671.124 251.936 667.188 253.472 662.58 253.472ZM650.484 428V285.152H674.676V428H650.484ZM757.118 431.456C742.91 431.456 730.43 428.192 719.678 421.664C709.118 415.136 700.862 406.208 694.91 394.88C689.15 383.552 686.27 370.688 686.27 356.288C686.27 341.888 689.246 329.12 695.198 317.984C701.15 306.656 709.406 297.824 719.966 291.488C730.526 284.96 743.006 281.696 757.406 281.696C769.118 281.696 779.486 284.096 788.51 288.896C797.534 293.696 804.542 300.416 809.534 309.056V220.64H833.726V428H811.838L809.534 404.384C804.926 411.296 798.302 417.536 789.662 423.104C781.022 428.672 770.174 431.456 757.118 431.456ZM759.71 410.432C769.31 410.432 777.758 408.224 785.054 403.808C792.542 399.2 798.302 392.864 802.334 384.8C806.558 376.736 808.67 367.328 808.67 356.576C808.67 345.824 806.558 336.416 802.334 328.352C798.302 320.288 792.542 314.048 785.054 309.632C777.758 305.024 769.31 302.72 759.71 302.72C750.302 302.72 741.854 305.024 734.366 309.632C727.07 314.048 721.31 320.288 717.086 328.352C713.054 336.416 711.038 345.824 711.038 356.576C711.038 367.328 713.054 376.736 717.086 384.8C721.31 392.864 727.07 399.2 734.366 403.808C741.854 408.224 750.302 410.432 759.71 410.432ZM900.81 431.456C883.914 431.456 870.474 426.368 860.49 416.192C850.506 405.824 845.514 389.984 845.514 368.672V285.152H869.706V366.08C869.706 395.84 881.898 410.72 906.282 410.72C918.762 410.72 929.034 406.304 937.098 397.472C945.354 388.448 949.482 375.68 949.482 359.168V285.152H973.674V428H951.786L950.058 402.368C945.642 411.392 939.018 418.496 930.186 423.68C921.546 428.864 911.754 431.456 900.81 431.456ZM1043.73 431.456C1026.65 431.456 1012.44 427.136 1001.11 418.496C989.783 409.856 983.159 398.144 981.239 383.36H1006.01C1007.54 390.848 1011.48 397.376 1017.81 402.944C1024.34 408.32 1033.08 411.008 1044.02 411.008C1054.2 411.008 1061.69 408.896 1066.49 404.672C1071.29 400.256 1073.69 395.072 1073.69 389.12C1073.69 380.48 1070.52 374.72 1064.18 371.84C1058.04 368.96 1049.3 366.368 1037.97 364.064C1030.29 362.528 1022.61 360.32 1014.93 357.44C1007.25 354.56 1000.82 350.528 995.639 345.344C990.455 339.968 987.863 332.96 987.863 324.32C987.863 311.84 992.471 301.664 1001.69 293.792C1011.09 285.728 1023.77 281.696 1039.7 281.696C1054.87 281.696 1067.25 285.536 1076.85 293.216C1086.65 300.704 1092.31 311.456 1093.85 325.472H1069.94C1068.98 318.176 1065.81 312.512 1060.44 308.48C1055.25 304.256 1048.25 302.144 1039.41 302.144C1030.77 302.144 1024.05 303.968 1019.25 307.616C1014.65 311.264 1012.34 316.064 1012.34 322.016C1012.34 327.776 1015.32 332.288 1021.27 335.552C1027.41 338.816 1035.67 341.6 1046.04 343.904C1054.87 345.824 1063.22 348.224 1071.09 351.104C1079.16 353.792 1085.69 357.92 1090.68 363.488C1095.86 368.864 1098.45 376.736 1098.45 387.104C1098.65 399.968 1093.75 410.624 1083.77 419.072C1073.97 427.328 1060.63 431.456 1043.73 431.456Z" fill="url(#paint7_linear)"/>
</g>
<defs>
<filter id="filter0_d" x="494.672" y="220.64" width="607.788" height="218.816" filterUnits="userSpaceOnUse" color-interpolation-filters="sRGB">
<feFlood flood-opacity="0" result="BackgroundImageFix"/>
<feColorMatrix in="SourceAlpha" type="matrix" values="0 0 0 0 0 0 0 0 0 0 0 0 0 0 0 0 0 0 127 0"/>
<feOffset dy="4"/>
<feGaussianBlur stdDeviation="2"/>
<feColorMatrix type="matrix" values="0 0 0 0 0 0 0 0 0 0 0 0 0 0 0 0 0 0 0.25 0"/>
<feBlend mode="normal" in2="BackgroundImageFix" result="effect1_dropShadow"/>
<feBlend mode="normal" in="SourceGraphic" in2="effect1_dropShadow" result="shape"/>
</filter>
<linearGradient id="paint0_linear" x1="64" y1="335" x2="448" y2="335" gradientUnits="userSpaceOnUse">
<stop stop-color="#2953B7"/>
<stop offset="1" stop-color="#5DB3F3"/>
</linearGradient>
<linearGradient id="paint1_linear" x1="64" y1="342.5" x2="448" y2="342.495" gradientUnits="userSpaceOnUse">
<stop stop-color="#2953B7"/>
<stop offset="1" stop-color="#5DB3F3"/>
</linearGradient>
<linearGradient id="paint2_linear" x1="64" y1="335" x2="448" y2="335" gradientUnits="userSpaceOnUse">
<stop stop-color="#2953B7"/>
<stop offset="1" stop-color="#5DB3F3"/>
</linearGradient>
<linearGradient id="paint3_linear" x1="61.1201" y1="333.029" x2="450.88" y2="333.029" gradientUnits="userSpaceOnUse">
<stop stop-color="#2953B7"/>
<stop offset="1" stop-color="#5DB3F3"/>
</linearGradient>
<linearGradient id="paint4_linear" x1="61.2679" y1="427.972" x2="444.866" y2="427.972" gradientUnits="userSpaceOnUse">
<stop stop-color="#2953B7"/>
<stop offset="1" stop-color="#5DB3F3"/>
</linearGradient>
<linearGradient id="paint5_linear" x1="61.4308" y1="285.875" x2="456.893" y2="285.874" gradientUnits="userSpaceOnUse">
<stop stop-color="#2953B7"/>
<stop offset="1" stop-color="#5DB3F3"/>
</linearGradient>
<linearGradient id="paint6_linear" x1="61.4308" y1="473.322" x2="456.893" y2="473.322" gradientUnits="userSpaceOnUse">
<stop stop-color="#2953B7"/>
<stop offset="1" stop-color="#5DB3F3"/>
</linearGradient>
<linearGradient id="paint7_linear" x1="282.586" y1="404.872" x2="1195" y2="404.872" gradientUnits="userSpaceOnUse">
<stop stop-color="#2953B7"/>
<stop offset="1" stop-color="#5DB3F3"/>
</linearGradient>
</defs>
</svg>
